<?xml version="1.0" standalone="no"?>
<!DOCTYPE svg PUBLIC "-//W3C//DTD SVG 20010904//EN"
 "http://www.w3.org/TR/2001/REC-SVG-20010904/DTD/svg10.dtd">
<svg version="1.0" xmlns="http://www.w3.org/2000/svg"
 width="512.000000pt" height="512.000000pt" viewBox="0 0 512.000000 512.000000"
 preserveAspectRatio="xMidYMid meet">

<g transform="translate(0.000000,512.000000) scale(0.100000,-0.100000)"
fill="#000000" stroke="none">
<path d="M1800 4127 c-60 -17 -129 -66 -164 -115 -45 -65 -56 -120 -56 -274
l0 -138 -517 0 -518 0 -50 -24 c-60 -28 -108 -76 -131 -131 -15 -36 -16 -137
-15 -1154 2 -1210 -1 -1142 57 -1218 14 -18 49 -46 77 -61 l52 -27 2010 -3
c1387 -1 2026 1 2061 8 34 7 65 23 92 46 77 65 73 13 70 990 l-3 871 -28 40
c-15 22 -46 50 -70 64 -41 23 -48 24 -299 27 l-256 3 -4 192 c-3 174 -5 196
-25 233 -29 54 -101 117 -151 132 -28 9 -187 12 -550 12 l-510 0 -4 158 c-3
148 -5 160 -31 214 -32 64 -80 111 -146 142 -44 20 -63 21 -446 23 -293 2
-412 -1 -445 -10z m846 -163 c64 -47 69 -63 72 -220 l3 -144 -64 0 -64 0 -5
84 c-5 106 -33 153 -108 185 -44 19 -68 21 -257 21 -237 0 -267 -8 -319 -76
-26 -33 -29 -47 -32 -126 l-4 -88 -69 0 -69 0 0 138 c0 163 11 194 81 230 44
23 45 23 426 20 367 -3 383 -4 409 -24z m-218 -236 c7 -7 12 -38 12 -70 l0
-58 -215 0 -215 0 0 51 c0 92 -7 89 213 89 137 0 196 -3 205 -12z m1479 -298
c20 -12 35 -31 40 -50 11 -44 -1 -196 -22 -279 l-19 -70 -241 -3 -242 -3 -48
-30 c-85 -52 -91 -73 -98 -345 -4 -128 -9 -235 -11 -237 -25 -25 -265 -52
-468 -53 l-118 0 -24 48 c-28 55 -88 113 -143 139 -33 16 -70 18 -283 18 -236
0 -247 -1 -297 -24 -58 -26 -111 -78 -143 -142 l-22 -42 -206 6 c-265 7 -371
29 -537 113 -305 154 -525 497 -525 818 0 98 11 129 54 146 11 5 764 9 1671 9
1621 1 1651 1 1682 -19z m703 -570 c20 -20 20 -33 20 -855 0 -822 0 -835 -20
-855 -20 -20 -33 -20 -585 -20 -552 0 -565 0 -585 20 -20 20 -20 33 -20 853 0
737 2 835 16 855 l15 22 570 0 c556 0 569 0 589 -20z m-3971 -269 c128 -146
355 -284 556 -337 92 -25 120 -27 342 -32 l242 -4 11 -33 c16 -49 74 -110 132
-139 52 -26 53 -26 303 -26 250 0 251 0 303 26 57 28 116 90 134 141 l12 33
211 0 c162 0 230 4 298 18 48 10 90 16 92 13 3 -2 5 -256 5 -563 l0 -558
-1360 0 -1360 0 -32 29 -33 29 -3 803 -2 803 46 -69 c26 -39 72 -99 103 -134z
m1828 -194 c61 -33 81 -111 43 -172 -32 -51 -57 -58 -252 -63 -223 -6 -262 0
-305 43 -28 28 -33 40 -33 83 0 57 24 96 74 118 49 22 429 15 473 -9z"/>
<path d="M3576 2689 l-26 -20 0 -190 c0 -248 -19 -229 224 -229 250 0 231 -18
231 230 0 248 18 230 -225 230 -164 0 -179 -2 -204 -21z m284 -209 l0 -80 -85
0 -85 0 0 80 0 80 85 0 85 0 0 -80z"/>
<path d="M4127 2699 c-28 -16 -40 -58 -26 -91 17 -41 61 -50 220 -46 118 3
140 6 158 22 31 28 28 79 -5 105 -24 19 -40 21 -178 21 -87 0 -159 -5 -169
-11z"/>
<path d="M4110 2363 c-25 -32 -20 -69 12 -95 17 -16 42 -18 179 -18 146 0 161
2 179 20 11 11 20 33 20 50 0 17 -9 39 -20 50 -18 18 -33 20 -184 20 l-165 0
-21 -27z"/>
<path d="M3576 2059 c-33 -26 -36 -77 -5 -105 20 -18 42 -19 454 -19 412 0
434 1 454 19 31 28 28 79 -5 105 -26 20 -37 21 -449 21 -412 0 -423 -1 -449
-21z"/>
<path d="M3570 1740 c-11 -11 -20 -33 -20 -50 0 -17 9 -39 20 -50 19 -19 33
-20 455 -20 422 0 436 1 455 20 11 11 20 33 20 50 0 17 -9 39 -20 50 -19 19
-33 20 -455 20 -422 0 -436 -1 -455 -20z"/>
<path d="M3576 1429 c-36 -28 -36 -80 0 -108 26 -20 37 -21 449 -21 412 0 423
1 449 21 36 28 36 80 0 108 -26 20 -37 21 -449 21 -412 0 -423 -1 -449 -21z"/>
</g>
</svg>
